<svg width="32" height="32" viewBox="0 0 32 32" fill="none" xmlns="http://www.w3.org/2000/svg">
<path d="M21.0461 29.3399V19.0192H24.5018L25.0191 15.007H21.0461V12.4454C21.0461 11.2838 21.3686 10.4921 23.0344 10.4921L25.1591 10.4912V6.90269C24.7915 6.85388 23.5305 6.74459 22.0632 6.74459C18.9998 6.74459 16.9028 8.61434 16.9028 12.0482V15.007H13.4382V19.0192H16.9028V29.3399H4.15159C3.33329 29.3399 2.66992 28.6766 2.66992 27.8583V4.15159C2.66992 3.33329 3.33329 2.66992 4.15159 2.66992H27.8583C28.6766 2.66992 29.3399 3.33329 29.3399 4.15159V27.8583C29.3399 28.6766 28.6766 29.3399 27.8583 29.3399H21.0461Z" fill="#313E38"/>
</svg>
