<svg width="32" height="32" viewBox="0 0 32 32" fill="none" xmlns="http://www.w3.org/2000/svg">
<path d="M25.3916 25.3972H21.4422V19.2086C21.4422 17.7328 21.4123 15.8338 19.3842 15.8338C17.3251 15.8338 17.0105 17.4396 17.0105 19.0997V25.3972H13.0612V12.6712H16.855V14.4057H16.9061C17.4362 13.4056 18.7253 12.35 20.651 12.35C24.6527 12.35 25.3928 14.9837 25.3928 18.4119L25.3916 25.3972ZM8.60066 10.9298C7.32939 10.9298 6.30815 9.90082 6.30815 8.63511C6.30815 7.3705 7.3305 6.3426 8.60066 6.3426C9.86748 6.3426 10.8943 7.3705 10.8943 8.63511C10.8943 9.90082 9.86637 10.9298 8.60066 10.9298ZM10.5809 25.3972H6.62041V12.6712H10.5809V25.3972ZM27.3674 2.66992H4.63794C3.55003 2.66992 2.66992 3.53003 2.66992 4.59127V27.4186C2.66992 28.4808 3.55003 29.3399 4.63794 29.3399H27.3641C28.4509 29.3399 29.3399 28.4808 29.3399 27.4186V4.59127C29.3399 3.53003 28.4509 2.66992 27.3641 2.66992H27.3674Z" fill="#F1F5F3"/>
</svg>
