<svg width="56" height="56" viewBox="0 0 56 56" fill="none" xmlns="http://www.w3.org/2000/svg">
<rect x="0.5" y="0.5" width="55" height="55" rx="27.5" fill="#1E4732"/>
<rect x="0.5" y="0.5" width="55" height="55" rx="27.5" stroke="#1E4732"/>
<path d="M36.1667 22.1667V18.6667C36.1667 18.3572 36.0438 18.0605 35.825 17.8417C35.6062 17.6229 35.3094 17.5 35 17.5H19.8333C19.2145 17.5 18.621 17.7458 18.1834 18.1834C17.7458 18.621 17.5 19.2145 17.5 19.8333C17.5 20.4522 17.7458 21.0457 18.1834 21.4832C18.621 21.9208 19.2145 22.1667 19.8333 22.1667H37.3333C37.6428 22.1667 37.9395 22.2896 38.1583 22.5084C38.3771 22.7272 38.5 23.0239 38.5 23.3333V28M38.5 28H35C34.3812 28 33.7877 28.2458 33.3501 28.6834C32.9125 29.121 32.6667 29.7145 32.6667 30.3333C32.6667 30.9522 32.9125 31.5457 33.3501 31.9832C33.7877 32.4208 34.3812 32.6667 35 32.6667H38.5C38.8094 32.6667 39.1062 32.5438 39.325 32.325C39.5438 32.1062 39.6667 31.8094 39.6667 31.5V29.1667C39.6667 28.8572 39.5438 28.5605 39.325 28.3417C39.1062 28.1229 38.8094 28 38.5 28Z" stroke="white" stroke-width="2" stroke-linecap="round" stroke-linejoin="round"/>
<path d="M17.5 19.8333V36.1667C17.5 36.7855 17.7458 37.379 18.1834 37.8166C18.621 38.2542 19.2145 38.5 19.8333 38.5H37.3333C37.6428 38.5 37.9395 38.3771 38.1583 38.1583C38.3771 37.9395 38.5 37.6428 38.5 37.3333V32.6667" stroke="white" stroke-width="2" stroke-linecap="round" stroke-linejoin="round"/>
</svg>
