<svg width="261" height="125" viewBox="0 0 261 125" fill="none" xmlns="http://www.w3.org/2000/svg">
<g clip-path="url(#clip0_254_734)">
<path fill-rule="evenodd" clip-rule="evenodd" d="M145.832 124.998C167.595 125.178 186.113 106.752 184.947 85.1828L184.935 85.1944C183.44 118.448 143.317 134.967 118.845 111.838C114.267 107.486 110.792 101.995 108.752 95.9734C115.241 94.0658 121.244 90.6242 125.978 85.6504C120.535 89.6634 114.453 92.4323 108.128 93.9584C107.332 91.1168 106.85 88.1757 106.718 85.1944C106.561 88.1709 106.804 91.1766 107.401 94.1281C93.5292 97.2565 78.5671 94.4394 66.6445 85.6864C77.0433 96.6028 93.551 100.106 107.885 96.2182C108.235 97.5605 108.658 98.887 109.148 100.19C114.641 114.921 129.951 125.154 145.832 124.998Z" fill="url(#paint0_linear_254_734)"/>
<path fill-rule="evenodd" clip-rule="evenodd" d="M51.1052 47.8656C51.113 47.9849 51.1212 48.1045 51.1298 48.2241L51.1055 48.2361C51.105 48.1125 51.1049 47.9889 51.1052 47.8656ZM141.342 39.5843C140.283 30.3187 136.267 21.3673 129.772 14.5149C100.4 -16.408 48.3492 5.52564 51.1052 47.8656C51.2181 7.66972 99.2405 -12.9999 128.375 15.8104C134.171 21.6046 138.229 29.1142 140.222 37.0317C140.303 37.605 140.448 38.2956 140.595 38.9976C140.641 39.2195 140.688 39.4425 140.732 39.6633C133.888 40.6085 127.347 43.4629 122.335 48.224C128.096 44.7297 134.525 42.6452 141.082 41.968C141.119 42.3868 141.159 42.8799 141.2 43.386C141.276 44.331 141.357 45.3212 141.425 45.9568L141.461 48.2241C141.646 46.1289 141.672 44.0215 141.546 41.9225C151.12 41.0313 160.943 43.1342 169.347 48.224C162.012 41.2429 151.392 38.3654 141.342 39.5843Z" fill="url(#paint1_linear_254_734)"/>
</g>
<g clip-path="url(#clip1_254_734)">
<path d="M63 81.7504V76.2292H66.3957V76.9372H63.6984V78.618H66.1067V79.3311H63.6984V81.0424H66.4969V81.7504H63ZM70.8318 81.7504H69.1556V76.2292H70.5765C71.0935 76.2292 71.5334 76.3124 71.8963 76.4788C72.2591 76.6452 72.5513 76.8676 72.7729 77.146C72.9945 77.4211 73.1582 77.725 73.2642 78.0577C73.367 78.3905 73.4183 78.7233 73.4183 79.056C73.4183 79.4737 73.3493 79.8472 73.2112 80.1766C73.0764 80.5059 72.8885 80.7878 72.6477 81.0221C72.4068 81.2598 72.1307 81.4397 71.8192 81.562C71.5077 81.6876 71.1786 81.7504 70.8318 81.7504ZM69.854 76.9372V81.0424H70.6969C70.9827 81.0424 71.2476 80.9966 71.4917 80.9049C71.7357 80.8098 71.9477 80.6757 72.1275 80.5025C72.3073 80.3294 72.4486 80.1171 72.5513 79.8659C72.6509 79.6146 72.7007 79.3294 72.7007 79.0102C72.7007 78.6672 72.6493 78.3667 72.5465 78.1087C72.4406 77.854 72.2945 77.6401 72.1082 77.4669C71.9284 77.2937 71.7213 77.1613 71.4869 77.0696C71.2557 76.9813 71.0132 76.9372 70.7596 76.9372H69.854ZM76.6695 76.2292V79.7946C76.6695 80.0424 76.7257 80.2649 76.8381 80.4618C76.9505 80.6587 77.1014 80.8132 77.2909 80.9253C77.4771 81.0374 77.6891 81.0934 77.9267 81.0934C78.1707 81.0934 78.3891 81.0374 78.5817 80.9253C78.7776 80.8132 78.9301 80.6587 79.0393 80.4618C79.1485 80.2649 79.2031 80.0424 79.2031 79.7946V76.2292H79.8919V79.82C79.8919 80.2207 79.8036 80.5722 79.6269 80.8744C79.4503 81.1732 79.2143 81.4041 78.9189 81.5671C78.6235 81.7301 78.2927 81.8115 77.9267 81.8115C77.5606 81.8115 77.2299 81.7301 76.9345 81.5671C76.6423 81.4041 76.4094 81.1732 76.2361 80.8744C76.0627 80.5722 75.976 80.2207 75.976 79.82V76.2292H76.6695ZM86.3076 80.6808L86.6014 81.3379C86.5179 81.399 86.4007 81.4686 86.2498 81.5467C86.0989 81.6214 85.9239 81.6842 85.7248 81.7351C85.5257 81.7861 85.3073 81.8115 85.0697 81.8115C84.6683 81.8081 84.3039 81.7317 83.9763 81.5823C83.652 81.4329 83.3759 81.2309 83.1479 80.9762C82.9231 80.7216 82.7497 80.4278 82.6277 80.0951C82.5025 79.7623 82.4398 79.4075 82.4398 79.0306C82.4398 78.6197 82.5041 78.2394 82.6325 77.8896C82.761 77.5399 82.9408 77.236 83.172 76.9779C83.4032 76.7233 83.6761 76.5246 83.9908 76.382C84.3087 76.2394 84.6555 76.1681 85.0312 76.1681C85.3427 76.1681 85.6252 76.2122 85.8789 76.3005C86.1358 76.3888 86.3558 76.4941 86.5388 76.6163L86.2546 77.3039C86.1101 77.202 85.9367 77.1053 85.7344 77.0136C85.5289 76.9219 85.3009 76.8761 85.0504 76.8761C84.7968 76.8761 84.5559 76.9304 84.328 77.039C84.1 77.1443 83.8993 77.2937 83.7259 77.4873C83.5525 77.6808 83.4176 77.9066 83.3213 78.1647C83.2217 78.4194 83.172 78.6944 83.172 78.9898C83.172 79.292 83.2169 79.5722 83.3068 79.8302C83.3935 80.0849 83.5204 80.3073 83.6873 80.4975C83.8543 80.6876 84.0566 80.8353 84.2942 80.9406C84.5287 81.0458 84.792 81.0985 85.0842 81.0985C85.3507 81.0985 85.5867 81.056 85.7922 80.9711C86.0009 80.8829 86.1727 80.7861 86.3076 80.6808ZM89.395 81.7504H88.7063L90.9893 76H91.0327L93.3061 81.7504H92.5066L90.8015 77.1613L91.3024 76.8149L89.395 81.7504ZM89.843 80.2988L90.0453 79.657H91.9864L92.2176 80.2988H89.843ZM94.9486 76.9372V76.2292H98.4165V76.9372H97.0149V81.7504H96.3117V76.9372H94.9486ZM100.974 81.7504V76.2292H104.37V76.9372H101.677V78.618H104.081V79.3311H101.677V81.0424H104.471V81.7504H100.974ZM106.624 81.348C106.624 81.236 106.664 81.1392 106.744 81.0577C106.825 80.9796 106.913 80.9406 107.009 80.9406C107.096 80.9406 107.178 80.9796 107.255 81.0577C107.335 81.1392 107.375 81.236 107.375 81.348C107.375 81.4669 107.335 81.5637 107.255 81.6384C107.178 81.7131 107.096 81.7504 107.009 81.7504C106.913 81.7504 106.825 81.7131 106.744 81.6384C106.664 81.5637 106.624 81.4669 106.624 81.348ZM113.517 81.7504V76.2292H116.912V76.9372H114.215V78.618H116.623V79.3311H114.215V81.0424H117.013V81.7504H113.517ZM122.177 81.7504L123.111 81.0323H124.903V81.7504H122.177ZM119.35 78.9898C119.35 78.6095 119.417 78.2496 119.552 77.91C119.69 77.5705 119.881 77.2699 120.125 77.0085C120.372 76.747 120.656 76.5416 120.978 76.3922C121.295 76.2428 121.641 76.1681 122.013 76.1681C122.379 76.1681 122.723 76.2428 123.044 76.3922C123.365 76.5416 123.649 76.747 123.896 77.0085C124.144 77.2699 124.336 77.5705 124.474 77.91C124.616 78.2496 124.686 78.6095 124.686 78.9898C124.686 79.3837 124.616 79.7521 124.474 80.0951C124.336 80.4346 124.144 80.7334 123.896 80.9915C123.652 81.2496 123.368 81.4499 123.044 81.5925C122.723 81.7385 122.379 81.8115 122.013 81.8115C121.641 81.8115 121.295 81.7402 120.978 81.5976C120.656 81.455 120.372 81.2564 120.125 81.0017C119.881 80.747 119.69 80.4499 119.552 80.1104C119.417 79.7674 119.35 79.3939 119.35 78.9898ZM120.072 79C120.072 79.292 120.122 79.5637 120.221 79.8149C120.321 80.0662 120.461 80.2886 120.64 80.4822C120.817 80.6757 121.024 80.8251 121.262 80.9304C121.496 81.039 121.751 81.0934 122.028 81.0934C122.297 81.0934 122.551 81.039 122.789 80.9304C123.023 80.8251 123.227 80.6757 123.4 80.4822C123.574 80.2886 123.71 80.0662 123.81 79.8149C123.912 79.5637 123.964 79.2886 123.964 78.9898C123.964 78.708 123.912 78.4397 123.81 78.1851C123.71 77.9304 123.571 77.7063 123.391 77.5127C123.214 77.3226 123.009 77.1732 122.774 77.0645C122.537 76.9525 122.283 76.8964 122.013 76.8964C121.737 76.8964 121.482 76.9525 121.247 77.0645C121.01 77.1732 120.803 77.3243 120.626 77.5178C120.446 77.7114 120.308 77.9355 120.212 78.1902C120.119 78.4448 120.072 78.7148 120.072 79ZM128.154 76.2292V79.7946C128.154 80.0424 128.211 80.2649 128.323 80.4618C128.435 80.6587 128.586 80.8132 128.776 80.9253C128.965 81.0374 129.177 81.0934 129.411 81.0934C129.659 81.0934 129.879 81.0374 130.071 80.9253C130.264 80.8132 130.415 80.6587 130.524 80.4618C130.633 80.2649 130.688 80.0424 130.688 79.7946V76.2292H131.377V79.82C131.377 80.2207 131.288 80.5722 131.112 80.8744C130.938 81.1732 130.702 81.4041 130.404 81.5671C130.108 81.7301 129.778 81.8115 129.411 81.8115C129.045 81.8115 128.715 81.7301 128.419 81.5671C128.127 81.4041 127.894 81.1732 127.721 80.8744C127.547 80.5722 127.461 80.2207 127.461 79.82V76.2292H128.154ZM134.252 81.7504V76.2292H134.951V81.7504H134.252ZM137.898 76.2292H139.295C139.674 76.2292 139.998 76.2954 140.268 76.4278C140.538 76.5637 140.747 76.7589 140.894 77.0136C141.042 77.2683 141.116 77.5772 141.116 77.9406C141.116 78.1579 141.084 78.3718 141.019 78.5823C140.958 78.7963 140.859 78.9881 140.721 79.1579C140.586 79.3277 140.408 79.4635 140.186 79.5654C139.965 79.6672 139.695 79.7182 139.377 79.7182H138.602V81.7504H137.898V76.2292ZM138.602 79.0102H139.367C139.573 79.0102 139.743 78.9745 139.878 78.9032C140.013 78.8319 140.12 78.7402 140.201 78.6282C140.275 78.5195 140.329 78.4041 140.364 78.2818C140.397 78.1596 140.413 78.0492 140.413 77.9508C140.413 77.8387 140.397 77.7233 140.364 77.6044C140.329 77.4856 140.273 77.3769 140.196 77.2784C140.116 77.18 140.011 77.0985 139.883 77.034C139.754 76.9694 139.597 76.9372 139.411 76.9372H138.602V79.0102ZM142.474 81.348C142.474 81.236 142.514 81.1392 142.595 81.0577C142.675 80.9796 142.763 80.9406 142.859 80.9406C142.946 80.9406 143.028 80.9796 143.105 81.0577C143.185 81.1392 143.225 81.236 143.225 81.348C143.225 81.4669 143.185 81.5637 143.105 81.6384C143.028 81.7131 142.946 81.7504 142.859 81.7504C142.763 81.7504 142.675 81.7131 142.595 81.6384C142.514 81.5637 142.474 81.4669 142.474 81.348ZM149.367 81.7504V76.2292H152.762V76.9372H150.07V78.618H152.473V79.3311H150.07V81.0424H152.864V81.7504H149.367ZM156.201 81.7504H155.522V76.0509H155.532L158.268 80.1613L157.974 80.1002L160.705 76.0509H160.719V81.7504H160.026V77.7317L160.069 78.1087L158.094 81.0526H158.08L156.081 78.1087L156.201 77.7623V81.7504ZM163.667 76.2292H165.059C165.441 76.2292 165.767 76.2954 166.037 76.4278C166.307 76.5637 166.514 76.7589 166.658 77.0136C166.806 77.2683 166.88 77.5772 166.88 77.9406C166.88 78.1579 166.849 78.3718 166.788 78.5823C166.724 78.7963 166.623 78.9881 166.485 79.1579C166.35 79.3277 166.172 79.4635 165.95 79.5654C165.729 79.6672 165.459 79.7182 165.141 79.7182H164.366V81.7504H163.667V76.2292ZM164.366 79.0102H165.131C165.34 79.0102 165.512 78.9745 165.647 78.9032C165.782 78.8319 165.888 78.7402 165.965 78.6282C166.042 78.5195 166.096 78.4041 166.128 78.2818C166.164 78.1596 166.181 78.0492 166.181 77.9508C166.181 77.8387 166.164 77.7233 166.128 77.6044C166.096 77.4856 166.04 77.3769 165.96 77.2784C165.88 77.18 165.775 77.0985 165.647 77.034C165.522 76.9694 165.364 76.9372 165.175 76.9372H164.366V79.0102ZM169.086 78.9898C169.086 78.6095 169.153 78.2496 169.288 77.91C169.426 77.5705 169.619 77.2699 169.866 77.0085C170.11 76.747 170.393 76.5416 170.714 76.3922C171.035 76.2428 171.38 76.1681 171.749 76.1681C172.116 76.1681 172.459 76.2428 172.78 76.3922C173.101 76.5416 173.386 76.747 173.633 77.0085C173.88 77.2699 174.074 77.5705 174.216 77.91C174.354 78.2496 174.423 78.6095 174.423 78.9898C174.423 79.3837 174.354 79.7521 174.216 80.0951C174.074 80.4346 173.882 80.7334 173.638 80.9915C173.39 81.2496 173.106 81.4499 172.785 81.5925C172.461 81.7385 172.116 81.8115 171.749 81.8115C171.38 81.8115 171.035 81.7402 170.714 81.5976C170.393 81.455 170.11 81.2564 169.866 81.0017C169.619 80.747 169.426 80.4499 169.288 80.1104C169.153 79.7674 169.086 79.3939 169.086 78.9898ZM169.808 79C169.808 79.292 169.858 79.5637 169.958 79.8149C170.06 80.0662 170.2 80.2886 170.377 80.4822C170.557 80.6757 170.764 80.8268 170.998 80.9355C171.236 81.0441 171.491 81.0985 171.764 81.0985C172.034 81.0985 172.287 81.0441 172.525 80.9355C172.759 80.8268 172.963 80.6757 173.137 80.4822C173.31 80.2886 173.448 80.0662 173.551 79.8149C173.65 79.5637 173.7 79.2886 173.7 78.9898C173.7 78.7012 173.65 78.4278 173.551 78.1698C173.448 77.9117 173.308 77.6859 173.132 77.4924C172.952 77.3022 172.745 77.1511 172.51 77.039C172.273 76.9304 172.019 76.8761 171.749 76.8761C171.477 76.8761 171.221 76.9321 170.984 77.0441C170.749 77.1562 170.542 77.309 170.362 77.5025C170.186 77.6961 170.049 77.9219 169.953 78.18C169.857 78.438 169.808 78.7114 169.808 79ZM178.29 82L176.21 76.2547H177.019L178.435 80.4771L178.31 80.4211L179.345 77.5942L179.668 78.5976L178.29 82ZM180.848 81.9949L178.714 76.2547H179.418L180.949 80.416L180.805 80.3803L182.153 76.2547H182.9L180.848 81.9949ZM185.39 81.7504V76.2292H188.786V76.9372H186.093V78.618H188.497V79.3311H186.093V81.0424H188.887V81.7504H185.39ZM191.546 76.2292H192.933C193.199 76.2292 193.443 76.2649 193.665 76.3362C193.89 76.4109 194.086 76.5212 194.253 76.6672C194.42 76.8132 194.55 76.9915 194.643 77.202C194.736 77.4126 194.783 77.6587 194.783 77.9406C194.783 78.1579 194.752 78.3718 194.691 78.5823C194.633 78.7895 194.534 78.9779 194.392 79.1477C194.254 79.3209 194.073 79.4584 193.848 79.5603C193.623 79.6655 193.347 79.7182 193.02 79.7182H192.249V81.7504H191.546V76.2292ZM192.249 79.0102H193.005C193.214 79.0102 193.386 78.9762 193.521 78.9083C193.659 78.8438 193.766 78.7589 193.843 78.6537C193.92 78.5484 193.977 78.4346 194.012 78.3124C194.044 78.1902 194.06 78.0764 194.06 77.9711C194.06 77.8591 194.042 77.7419 194.007 77.6197C193.972 77.5008 193.914 77.3905 193.834 77.2886C193.753 77.1868 193.649 77.1036 193.521 77.039C193.395 76.9711 193.241 76.9372 193.058 76.9372H192.249V79.0102ZM193.034 79.4533L193.867 79.4278L195.23 81.7504H194.421L193.034 79.4533ZM197.249 81.348C197.249 81.236 197.287 81.1392 197.364 81.0577C197.444 80.9796 197.533 80.9406 197.629 80.9406C197.716 80.9406 197.799 80.9796 197.88 81.0577C197.96 81.1392 198 81.236 198 81.348C198 81.4669 197.96 81.5637 197.88 81.6384C197.799 81.7131 197.716 81.7504 197.629 81.7504C197.533 81.7504 197.444 81.7131 197.364 81.6384C197.287 81.5637 197.249 81.4669 197.249 81.348Z" fill="#168A53"/>
</g>
<g clip-path="url(#clip2_254_734)">
<path d="M5.32691 67.5967C4.91082 67.5967 4.46893 67.5688 4.00123 67.513C3.53354 67.454 3.14486 67.3904 2.83522 67.3221C2.19334 67.2073 1.72887 67.1127 1.4418 67.0382C1.15795 66.9607 0.893464 66.9064 0.648326 66.8754C0.425766 65.8422 0.261265 64.9951 0.154824 64.3343C0.051608 63.6765 0 63.1987 0 62.9009C0 62.7985 0.138696 62.7473 0.41609 62.7473C0.728963 62.7473 0.945072 62.8233 1.06442 62.9753C1.67081 65.3737 3.10938 66.5728 5.38013 66.5728C6.24779 66.5728 6.98482 66.3231 7.59122 65.8236C8.19761 65.324 8.50081 64.6166 8.50081 63.7013C8.50081 63.4004 8.43468 63.0327 8.30244 62.5983C8.17342 62.1671 7.88312 61.7917 7.43155 61.4721C7.08642 61.2239 6.80097 61.0377 6.57518 60.9136C6.3494 60.7864 6.12361 60.6685 5.89783 60.5599C5.67527 60.4544 5.38981 60.3008 5.04146 60.0992L4.00123 59.4988C3.4658 59.1823 2.92875 58.8209 2.3901 58.4144C1.85466 58.0049 1.40954 57.5255 1.05474 56.9763C0.699934 56.4241 0.522531 55.7989 0.522531 55.1008C0.522531 54.2165 0.759605 53.4455 1.23375 52.7877C1.71113 52.13 2.33526 51.618 3.10616 51.2519C3.87705 50.8858 4.71246 50.7028 5.61237 50.7028C5.99621 50.7028 6.35585 50.7229 6.6913 50.7633C7.02998 50.8036 7.31221 50.8501 7.53799 50.9029C8.0573 51.0177 8.42501 51.1092 8.64112 51.1775C8.85722 51.2426 9.15558 51.3171 9.53619 51.4009C9.74585 52.2665 9.85068 53.4579 9.85068 54.9751C9.85068 55.093 9.76359 55.152 9.58941 55.152C9.1572 55.152 8.93302 55.0682 8.91689 54.9006C8.82981 54.4011 8.63789 53.9093 8.34114 53.4253C8.04762 52.9413 7.64927 52.538 7.1461 52.2153C6.64614 51.8895 6.04943 51.7266 5.35594 51.7266C4.64311 51.7266 4.08832 51.8554 3.69159 52.1129C3.29162 52.3704 3.00939 52.6947 2.84489 53.0856C2.68039 53.4796 2.59814 53.8923 2.59814 54.3236C2.59814 54.7424 2.70297 55.1597 2.91263 55.5755C3.11906 55.9912 3.42226 56.3418 3.82222 56.6273C4.35765 57.0089 4.89792 57.3657 5.44303 57.6977C5.99137 58.0328 6.55905 58.3756 7.1461 58.7262C7.70088 59.0582 8.25567 59.429 8.81045 59.8385C9.36524 60.245 9.8281 60.7073 10.199 61.2254C10.5732 61.7405 10.7603 62.3408 10.7603 63.0265C10.7603 63.9077 10.5087 64.6942 10.0055 65.3861C9.50232 66.078 8.83948 66.6194 8.01698 67.0103C7.19448 67.4013 6.29779 67.5967 5.32691 67.5967ZM19.474 67.5223C18.6095 67.5223 17.887 67.2477 17.3064 66.6985C16.7258 66.1493 16.4355 65.3659 16.4355 64.3482V58.0002H14.926C14.8421 58.0002 14.8002 57.8249 14.8002 57.4743C14.8002 57.375 14.8083 57.3176 14.8244 57.3021C15.3437 57.0663 15.8888 56.6242 16.4597 55.9757C16.8597 55.5258 17.1597 55.1333 17.3596 54.7983C17.5564 54.4663 17.6548 54.2677 17.6548 54.2025C18.1741 54.2025 18.4337 54.2429 18.4337 54.3236V56.7995L20.49 56.8227H21.9463C22.085 56.8227 22.1544 56.8988 22.1544 57.0508C22.1544 57.3673 22.0673 57.6837 21.8931 58.0002H18.4337V64.1248C18.4337 64.7919 18.6127 65.3256 18.9708 65.7258C19.3256 66.123 19.7884 66.3215 20.3594 66.3215C20.8948 66.3215 21.4318 66.1633 21.9705 65.8468C22.0221 65.8158 22.0995 65.8872 22.2027 66.0609C22.3092 66.2347 22.3527 66.3308 22.3334 66.3495C22.0753 66.6163 21.677 66.8785 21.1383 67.136C20.6029 67.3935 20.0481 67.5223 19.474 67.5223ZM31.3857 67.499C30.4342 67.499 29.5601 67.257 28.7634 66.773C27.9667 66.289 27.3297 65.6436 26.8523 64.8369C26.3749 64.0271 26.1362 63.1227 26.1362 62.1236C26.1362 60.957 26.362 59.9487 26.8136 59.0985C27.2652 58.2484 27.8796 57.5953 28.657 57.1392C29.4375 56.68 30.3133 56.4504 31.2841 56.4504C32.0808 56.4504 32.7824 56.5962 33.3888 56.8879C33.9952 57.1795 34.4629 57.5503 34.7919 58.0002C35.1047 58.4656 35.3337 58.9357 35.4789 59.4104C35.6273 59.8851 35.7015 60.3567 35.7015 60.8252C35.7015 61.1572 35.6498 61.3604 35.5466 61.4348C35.4434 61.5124 35.2434 61.5512 34.9467 61.5512H28.4005C28.2618 61.5512 28.1925 61.5915 28.1925 61.6722C28.1925 62.3734 28.3392 63.0451 28.6328 63.6874C28.9263 64.3296 29.3601 64.8586 29.9343 65.2744C30.5052 65.6901 31.2067 65.898 32.0389 65.898C32.7646 65.898 33.3743 65.7941 33.8678 65.5862C34.3613 65.3783 34.7209 65.1906 34.9467 65.0231L35.1305 64.8974C35.2338 64.8974 35.2854 65.006 35.2854 65.2232C35.2854 65.3411 35.2338 65.4916 35.1305 65.6746C34.7822 66.14 34.2709 66.5604 33.5968 66.9359C32.9195 67.3113 32.1824 67.499 31.3857 67.499ZM28.4005 60.4994H33.4662C33.5533 60.4994 33.5968 60.4156 33.5968 60.2481C33.5968 59.882 33.4968 59.4786 33.2968 59.038C33.0969 58.5944 32.7985 58.2065 32.4018 57.8745C32.0018 57.5426 31.4986 57.3766 30.8922 57.3766C30.3374 57.3766 29.8617 57.555 29.4649 57.9118C29.065 58.2717 28.7618 58.6797 28.5554 59.1358C28.3489 59.595 28.2457 59.9906 28.2457 60.3225C28.2457 60.4404 28.2973 60.4994 28.4005 60.4994ZM45.615 67.6246C45.4215 67.6246 45.3167 67.5905 45.3005 67.5223C45.0941 67.0724 44.8732 66.5775 44.6377 66.0376C44.4055 65.4947 44.1587 64.9067 43.8974 64.2738C43.362 63.0234 42.8605 61.894 42.3928 60.8857C41.9251 59.8773 41.3783 58.841 40.7526 57.7768C40.5268 57.4076 40.0591 57.223 39.3495 57.223C39.2818 57.223 39.2479 57.1159 39.2479 56.9019C39.2479 56.7002 39.2818 56.5668 39.3495 56.5016C39.714 56.5171 40.122 56.5451 40.5736 56.5854C41.0219 56.6288 41.4719 56.6428 41.9234 56.6273L44.5216 56.5016C44.5571 56.5668 44.57 56.7033 44.5603 56.9112C44.5506 57.119 44.52 57.223 44.4684 57.223C43.6039 57.223 43.1717 57.4154 43.1717 57.8001C43.1717 57.918 43.4572 58.5385 44.0281 59.6617C44.599 60.7879 45.3441 62.3501 46.2634 64.3482C46.8697 62.6976 47.3503 61.3976 47.7052 60.4482C48.06 59.4988 48.2374 58.9574 48.2374 58.824C48.2374 58.7402 48.189 58.599 48.0922 58.4004C47.9987 58.1988 47.8826 57.9738 47.7439 57.7256C47.6052 57.5239 47.4149 57.3905 47.1729 57.3254C46.931 57.2571 46.6794 57.223 46.4182 57.223C46.3504 57.223 46.3166 57.1159 46.3166 56.9019C46.3166 56.7002 46.3504 56.5668 46.4182 56.5016C46.7827 56.5171 47.1858 56.542 47.6277 56.5761C48.0696 56.6102 48.5067 56.6273 48.9389 56.6273C49.4937 56.6273 49.984 56.6102 50.4097 56.5761C50.8323 56.542 51.1903 56.5171 51.4838 56.5016C51.5193 56.635 51.537 56.7762 51.537 56.9251C51.537 57.0927 51.5112 57.192 51.4596 57.223C50.6275 57.223 50.2114 57.5488 50.2114 58.2003C50.2114 58.5323 51.1645 60.5816 53.0708 64.3482C53.4159 63.3151 53.7546 62.361 54.0868 61.486C54.4158 60.6111 54.6835 59.8789 54.89 59.2894C55.0964 58.6967 55.1996 58.2996 55.1996 58.0979C55.1996 57.5146 54.6287 57.223 53.4869 57.223H53.3853C53.3143 57.223 53.2788 57.1159 53.2788 56.9019C53.2788 56.7002 53.3143 56.5668 53.3853 56.5016C53.7659 56.5171 54.1803 56.542 54.6287 56.5761C55.0803 56.6102 55.5399 56.6273 56.0076 56.6273C56.4237 56.6273 56.8269 56.6102 57.2172 56.5761C57.6074 56.542 57.9751 56.5171 58.3203 56.5016C58.3558 56.635 58.3735 56.7591 58.3735 56.8739C58.3735 57.1066 58.33 57.223 58.2429 57.223C58.0171 57.223 57.7139 57.2943 57.3333 57.4371C56.9527 57.5798 56.7011 57.8094 56.5785 58.1259L53.1772 67.0755C53.0546 67.4416 52.8111 67.6246 52.4466 67.6246C52.2563 67.6246 52.1531 67.5905 52.137 67.5223L48.9389 60.1736L46.3166 67.0755C46.2617 67.1903 46.1698 67.3113 46.0408 67.4385C45.9118 67.5626 45.7699 67.6246 45.615 67.6246ZM64.5132 67.5223C63.7165 67.5223 63.0585 67.319 62.5392 66.9126C62.0199 66.503 61.7603 65.8903 61.7603 65.0743C61.7603 64.0752 62.436 63.2421 63.7875 62.5751C64.3778 62.2927 64.9632 62.0678 65.5438 61.9002C66.1244 61.7327 66.7082 61.5403 67.2952 61.3231C67.4533 61.2735 67.5323 61.1494 67.5323 60.9508V59.0753C67.5323 58.5416 67.3581 58.129 67.0098 57.8373C66.6646 57.5457 66.2486 57.3998 65.7615 57.3998C65.2422 57.3998 64.81 57.5705 64.4649 57.9118C64.1165 58.2531 63.9423 58.6983 63.9423 59.2475C63.9423 59.8308 63.5875 60.1224 62.8779 60.1224C62.3747 60.1224 62.0377 59.9642 61.8667 59.6477C61.8667 59.3002 62.0183 58.9388 62.3215 58.5633C62.6247 58.1879 63.0182 57.842 63.502 57.5255C63.9859 57.209 64.5181 56.95 65.0987 56.7483C65.6793 56.5497 66.2566 56.4504 66.8308 56.4504C67.7823 56.4504 68.4661 56.6707 68.8822 57.1113C69.2983 57.555 69.5063 58.267 69.5063 59.2475V65.0231C69.5063 65.3737 69.6015 65.6653 69.7918 65.898C69.9821 66.1307 70.2417 66.2471 70.5707 66.2471C70.7965 66.2471 71.0997 66.1307 71.4803 65.898C71.548 65.898 71.5819 65.9647 71.5819 66.0981C71.5819 66.3153 71.54 66.4906 71.4561 66.624C70.7433 67.2073 70.1369 67.499 69.6369 67.499C69.237 67.499 68.8548 67.3408 68.4903 67.0243C68.1258 66.7078 67.8758 66.3743 67.7403 66.0237C67.6533 66.0919 67.5436 66.1788 67.4113 66.2843C67.2823 66.3929 67.1743 66.4813 67.0872 66.5496C66.7227 66.8164 66.3292 67.046 65.9066 67.2384C65.4809 67.4276 65.0164 67.5223 64.5132 67.5223ZM65.5051 66.0981C65.9889 66.0981 66.4469 65.9647 66.8791 65.6979C67.3146 65.4311 67.5323 65.1487 67.5323 64.8509V62.2726C67.0807 62.4401 66.6517 62.5906 66.2453 62.724C65.8357 62.8574 65.5099 62.966 65.268 63.0498C64.9584 63.1646 64.66 63.3725 64.3729 63.6734C64.0859 63.9744 63.9423 64.3157 63.9423 64.6973C63.9423 65.1999 64.1036 65.5583 64.4261 65.7724C64.7455 65.9895 65.1051 66.0981 65.5051 66.0981ZM78.1958 67.2989L75.3606 67.4245C75.2929 67.3563 75.259 67.2151 75.259 67.001C75.259 66.7993 75.2929 66.6985 75.3606 66.6985C75.4993 66.6985 75.6912 66.6737 75.9363 66.624C76.1783 66.5744 76.4024 66.5077 76.6089 66.4239C76.8185 66.3401 76.9314 66.2657 76.9475 66.2005C77.0185 65.9647 77.0669 65.6979 77.0927 65.4C77.1185 65.0991 77.1314 64.7826 77.1314 64.4506V59.7268C77.1314 59.0908 77.0088 58.6393 76.7637 58.3725C76.5927 58.174 76.3895 58.0421 76.1541 57.9769C75.9218 57.9087 75.7138 57.8699 75.5299 57.8606C75.3493 57.8544 75.259 57.8342 75.259 57.8001C75.259 57.3998 75.3106 57.192 75.4138 57.1764C77.304 56.891 78.3958 56.7079 78.6893 56.6273L79.1296 56.5016C79.2006 56.483 79.2441 56.5497 79.2602 56.7017C79.2764 56.8507 79.2764 56.9577 79.2602 57.0229L79.1054 58.2748C79.4183 57.8249 79.8473 57.4045 80.3924 57.0136C80.9375 56.6226 81.4778 56.4272 82.0132 56.4272C83.0195 56.4272 83.6953 56.6676 84.0404 57.1485C84.0404 57.7318 83.9453 58.1569 83.755 58.4237C83.5647 58.6905 83.3308 58.824 83.0534 58.824C82.7438 58.824 82.4583 58.6828 82.197 58.4004C81.9358 58.1181 81.581 57.9769 81.1326 57.9769C80.7843 57.9769 80.4553 58.0886 80.1456 58.312C79.8327 58.5385 79.586 58.8224 79.4054 59.1637C79.2215 59.505 79.1296 59.8587 79.1296 60.2248V63.9759C79.1296 64.4568 79.1473 64.8819 79.1828 65.2511C79.2183 65.6172 79.2699 65.9337 79.3376 66.2005C79.3731 66.2657 79.4941 66.3401 79.7005 66.4239C79.9102 66.5077 80.1408 66.5744 80.3924 66.624C80.644 66.6737 80.8214 66.6985 80.9246 66.6985C80.9762 66.6985 81.0101 66.7993 81.0262 67.001C81.0455 67.1996 81.0375 67.3408 81.002 67.4245L78.1958 67.2989ZM96.2425 67.4478L96.0054 67.499C95.9022 67.499 95.8506 67.3578 95.8506 67.0755V66.773C95.8506 66.6892 95.8151 66.6566 95.7441 66.6752C94.7926 67.1903 93.875 67.4478 92.9912 67.4478C92.0396 67.4478 91.1784 67.2182 90.4075 66.759C89.6367 66.3029 89.0303 65.6948 88.5884 64.9346C88.1465 64.1776 87.9255 63.3492 87.9255 62.4494C87.9255 61.6489 88.0852 60.8826 88.4045 60.1503C88.7271 59.4181 89.1609 58.7635 89.706 58.1864C90.2511 57.6124 90.8704 57.1625 91.5639 56.8367C92.2574 56.5109 92.9767 56.348 93.7218 56.348C94.4636 56.348 95.1119 56.4908 95.6667 56.7762C95.7893 56.7762 95.8506 56.6257 95.8506 56.3248V53.6255C95.8506 53.0577 95.799 52.524 95.6958 52.0245C95.6248 51.7577 95.1829 51.6242 94.3701 51.6242H94.133C94.0298 51.6242 93.9782 51.5327 93.9782 51.3497C93.9782 51.0828 94.0298 50.9494 94.133 50.9494C95.1039 50.8656 95.8716 50.7415 96.436 50.5771C96.9973 50.4096 97.4004 50.242 97.6456 50.0745L97.7472 50H97.8004C97.8681 50 97.9375 50.0465 98.0084 50.1396C98.0762 50.2296 98.1197 50.3165 98.1391 50.4002C97.9488 50.9494 97.8536 51.6739 97.8536 52.5737V63.8223C97.8536 64.6073 97.9052 65.2418 98.0084 65.7258C98.0601 65.8903 98.2117 65.9942 98.4632 66.0376C98.7148 66.078 98.9793 66.1152 99.2567 66.1493L99.489 66.1726C99.5406 66.1912 99.5664 66.2921 99.5664 66.4751C99.5664 66.7233 99.5147 66.8474 99.4115 66.8474C98.8406 66.8816 98.252 66.97 97.6456 67.1127C97.0392 67.2523 96.5715 67.364 96.2425 67.4478ZM93.9782 66.2238C94.5685 66.2238 95.0281 66.095 95.3571 65.8375C95.6861 65.58 95.8506 65.234 95.8506 64.7997V58.8519C95.8506 58.5013 95.6554 58.1708 95.2652 57.8606C94.8749 57.5534 94.2475 57.3998 93.3831 57.3998C92.7251 57.3998 92.1525 57.6 91.6655 58.0002C91.1817 58.4004 90.8091 58.9294 90.5479 59.5872C90.2898 60.245 90.1608 60.957 90.1608 61.7234C90.1608 62.5239 90.3124 63.2654 90.6156 63.948C90.9188 64.6306 91.3559 65.1813 91.9268 65.6002C92.4977 66.0159 93.1815 66.2238 93.9782 66.2238ZM113.036 67.5502C112.933 67.5502 112.855 67.5083 112.804 67.4245L106.05 54.5004C105.804 54.0164 105.553 53.5743 105.295 53.174C105.034 52.7738 104.782 52.4154 104.54 52.0989C104.401 51.9345 104.168 51.798 103.839 51.6894C103.51 51.5808 103.242 51.5265 103.035 51.5265C102.964 51.5265 102.929 51.4179 102.929 51.2007C102.929 51.0022 102.964 50.8687 103.035 50.8005L106.306 50.9261L109.035 50.8005C109.07 50.8687 109.083 51.0068 109.074 51.2147C109.067 51.4226 109.038 51.5265 108.986 51.5265C108.709 51.5265 108.422 51.5886 108.125 51.7127C107.832 51.8368 107.685 52.0167 107.685 52.2525C107.685 52.7521 107.883 53.3679 108.28 54.1002L113.66 64.3482C113.712 64.432 113.781 64.4537 113.868 64.4134C113.955 64.37 114.017 64.3064 114.052 64.2226L116.21 59.899L113.481 54.5004C113.239 54.0164 112.988 53.5743 112.726 53.174C112.465 52.7738 112.214 52.4154 111.972 52.0989C111.833 51.9345 111.599 51.798 111.27 51.6894C110.941 51.5808 110.673 51.5265 110.467 51.5265C110.396 51.5265 110.36 51.4008 110.36 51.1495C110.36 50.9851 110.396 50.8687 110.467 50.8005L113.738 50.9261L116.442 50.8005C116.478 50.8687 116.491 51.0068 116.481 51.2147C116.471 51.4226 116.441 51.5265 116.389 51.5265C116.112 51.5265 115.831 51.5839 115.547 51.6987C115.26 51.8166 115.117 52.0012 115.117 52.2525C115.117 52.4666 115.165 52.7288 115.262 53.0391C115.355 53.3462 115.507 53.6999 115.716 54.1002L117.429 57.4743L119.248 53.8023C119.49 53.3183 119.611 52.8343 119.611 52.3503C119.611 52.0679 119.426 51.86 119.055 51.7266C118.681 51.5932 118.355 51.5265 118.078 51.5265C118.01 51.5265 117.976 51.4179 117.976 51.2007C117.976 51.0022 118.01 50.8687 118.078 50.8005C118.771 50.8346 119.339 50.8687 119.781 50.9029C120.222 50.9339 120.53 50.9417 120.705 50.9261L123.404 50.8005C123.44 50.8687 123.454 51.0068 123.448 51.2147C123.438 51.4226 123.408 51.5265 123.356 51.5265C123.25 51.5265 123.075 51.556 122.834 51.6149C122.592 51.6708 122.35 51.753 122.108 51.8616C121.866 51.9702 121.684 52.0912 121.561 52.2246C121.406 52.4077 121.203 52.7117 120.951 53.1368C120.7 53.5619 120.401 54.1157 120.056 54.7983L118.053 58.7495L120.884 64.3482C120.971 64.5003 121.076 64.4584 121.198 64.2226L125.848 53.9512C126.006 53.6161 126.119 53.3152 126.186 53.0484C126.257 52.7846 126.293 52.5597 126.293 52.3735C126.293 52.0912 126.115 51.8787 125.761 51.7359C125.403 51.5963 125.087 51.5265 124.812 51.5265C124.741 51.5265 124.706 51.4179 124.706 51.2007C124.706 51.0022 124.741 50.8687 124.812 50.8005C125.503 50.8346 126.069 50.8641 126.511 50.8889C126.952 50.9137 127.269 50.9261 127.459 50.9261C127.962 50.9261 128.43 50.9091 128.862 50.8749C129.297 50.8408 129.688 50.816 130.033 50.8005C130.068 50.9339 130.086 51.0596 130.086 51.1775C130.086 51.4102 130.051 51.5265 129.98 51.5265C129.809 51.5265 129.531 51.5886 129.147 51.7127C128.767 51.8368 128.481 52.0074 128.291 52.2246C127.807 52.7924 127.306 53.6348 126.786 54.7517L121.276 66.7497C121.034 67.2834 120.697 67.5502 120.264 67.5502C120.158 67.5502 120.079 67.5083 120.027 67.4245L116.858 61.1742L114.052 66.7497C113.791 67.2834 113.452 67.5502 113.036 67.5502ZM136.487 67.499C135.536 67.499 134.661 67.257 133.865 66.773C133.068 66.289 132.431 65.6436 131.954 64.8369C131.476 64.0271 131.238 63.1227 131.238 62.1236C131.238 60.957 131.463 59.9487 131.915 59.0985C132.366 58.2484 132.981 57.5953 133.758 57.1392C134.539 56.68 135.415 56.4504 136.385 56.4504C137.182 56.4504 137.884 56.5962 138.49 56.8879C139.096 57.1795 139.564 57.5503 139.893 58.0002C140.206 58.4656 140.435 58.9357 140.58 59.4104C140.729 59.8851 140.803 60.3567 140.803 60.8252C140.803 61.1572 140.751 61.3604 140.648 61.4348C140.541 61.5124 140.342 61.5512 140.048 61.5512H133.502C133.363 61.5512 133.294 61.5915 133.294 61.6722C133.294 62.3734 133.441 63.0451 133.734 63.6874C134.028 64.3296 134.46 64.8586 135.031 65.2744C135.605 65.6901 136.308 65.898 137.14 65.898C137.866 65.898 138.476 65.7941 138.969 65.5862C139.463 65.3783 139.822 65.1906 140.048 65.0231L140.232 64.8974C140.335 64.8974 140.387 65.006 140.387 65.2232C140.387 65.3411 140.335 65.4916 140.232 65.6746C139.883 66.14 139.372 66.5604 138.698 66.9359C138.021 67.3113 137.284 67.499 136.487 67.499ZM133.502 60.4994H138.567C138.655 60.4994 138.698 60.4156 138.698 60.2481C138.698 59.882 138.598 59.4786 138.398 59.038C138.198 58.5944 137.9 58.2065 137.503 57.8745C137.103 57.5426 136.6 57.3766 135.994 57.3766C135.439 57.3766 134.963 57.555 134.566 57.9118C134.166 58.2717 133.863 58.6797 133.657 59.1358C133.447 59.595 133.342 59.9906 133.342 60.3225C133.342 60.4404 133.395 60.4994 133.502 60.4994ZM147.441 67.2989L144.606 67.4245C144.538 67.3563 144.504 67.2151 144.504 67.001C144.504 66.7993 144.538 66.6985 144.606 66.6985C144.744 66.6985 144.935 66.6737 145.177 66.624C145.422 66.5744 145.647 66.5077 145.854 66.4239C146.06 66.3401 146.173 66.2657 146.193 66.2005C146.26 65.9647 146.307 65.6979 146.333 65.4C146.359 65.0991 146.372 64.7826 146.372 64.4506V53.6255C146.372 53.0577 146.32 52.524 146.217 52.0245C146.149 51.7577 145.707 51.6242 144.891 51.6242H144.659C144.556 51.6242 144.504 51.5327 144.504 51.3497C144.504 51.0828 144.556 50.9494 144.659 50.9494C145.697 50.8346 146.468 50.7012 146.972 50.5492C147.475 50.4002 147.821 50.2668 148.012 50.1489L148.273 50H148.321C148.392 50 148.462 50.0465 148.529 50.1396C148.6 50.2296 148.644 50.3165 148.66 50.4002C148.47 50.9494 148.375 51.6739 148.375 52.5737V63.9759C148.375 64.4568 148.392 64.8819 148.428 65.2511C148.46 65.6172 148.512 65.9337 148.583 66.2005C148.618 66.2657 148.739 66.3401 148.946 66.4239C149.155 66.5077 149.381 66.5744 149.623 66.624C149.865 66.6737 150.037 66.6985 150.141 66.6985C150.192 66.6985 150.228 66.7993 150.247 67.001C150.263 67.1996 150.253 67.3408 150.218 67.4245L147.441 67.2989ZM156.624 67.2989L153.789 67.4245C153.721 67.3563 153.687 67.2151 153.687 67.001C153.687 66.7993 153.721 66.6985 153.789 66.6985C153.927 66.6985 154.119 66.6737 154.364 66.624C154.606 66.5744 154.83 66.5077 155.037 66.4239C155.247 66.3401 155.359 66.2657 155.376 66.2005C155.443 65.9647 155.492 65.6979 155.521 65.4C155.547 65.0991 155.559 64.7826 155.559 64.4506V53.6255C155.559 53.0577 155.506 52.524 155.4 52.0245C155.332 51.7577 154.89 51.6242 154.074 51.6242H153.842C153.739 51.6242 153.687 51.5327 153.687 51.3497C153.687 51.0828 153.739 50.9494 153.842 50.9494C154.88 50.8346 155.651 50.7012 156.155 50.5492C156.658 50.4002 157.004 50.2668 157.195 50.1489L157.456 50H157.504C157.575 50 157.645 50.0465 157.712 50.1396C157.783 50.2296 157.827 50.3165 157.843 50.4002C157.653 50.9494 157.558 51.6739 157.558 52.5737V63.9759C157.558 64.4568 157.575 64.8819 157.611 65.2511C157.646 65.6172 157.698 65.9337 157.766 66.2005C157.801 66.2657 157.922 66.3401 158.129 66.4239C158.338 66.5077 158.564 66.5744 158.806 66.624C159.048 66.6737 159.22 66.6985 159.324 66.6985C159.378 66.6985 159.414 66.7993 159.43 67.001C159.446 67.1996 159.438 67.3408 159.406 67.4245L156.624 67.2989ZM180.472 67.499C179.33 67.499 178.26 67.2818 177.264 66.8474C176.267 66.4162 175.393 65.8251 174.641 65.0743C173.887 64.3234 173.296 63.4531 172.871 62.4634C172.448 61.4705 172.237 60.4156 172.237 59.2987C172.237 58.1166 172.453 57.0042 172.885 55.9618C173.317 54.9193 173.924 54.0024 174.704 53.2113C175.485 52.4201 176.39 51.7995 177.419 51.3497C178.451 50.8998 179.564 50.6748 180.757 50.6748C181.78 50.6748 182.82 50.7245 183.878 50.8238C184.936 50.9261 186.002 51.0844 187.076 51.2985L187.023 54.9006C187.023 55.1489 186.84 55.273 186.476 55.273C186.302 55.273 186.189 55.2326 186.137 55.152C186.086 54.9348 186.021 54.7129 185.944 54.4864C185.866 54.2631 185.707 53.9683 185.465 53.6022C185.049 53.0189 184.455 52.5597 183.684 52.2246C182.913 51.8926 181.965 51.7266 180.839 51.7266C179.988 51.7266 179.189 51.9221 178.444 52.313C177.699 52.704 177.046 53.233 176.485 53.9C175.92 54.5671 175.483 55.3211 175.174 56.1619C174.861 57.0027 174.704 57.873 174.704 58.7728C174.704 60.1565 174.946 61.3992 175.43 62.5006C175.917 63.6331 176.685 64.5701 177.733 65.3116C178.781 66.0532 180.023 66.4239 181.459 66.4239C183.175 66.4239 184.5 65.9399 185.436 64.9719C185.713 64.6895 185.931 64.3575 186.089 63.9759C186.244 63.5912 186.365 63.2577 186.452 62.9753C186.539 62.6899 186.624 62.5471 186.708 62.5471C186.815 62.5471 186.94 62.5611 187.085 62.589C187.234 62.6139 187.352 62.6511 187.439 62.7007L187.569 62.7752C187.569 62.8745 187.534 63.1072 187.463 63.4733C187.395 63.8394 187.31 64.2443 187.206 64.688C187.1 65.1286 187 65.5148 186.906 65.8468C186.81 66.1819 186.735 66.3665 186.684 66.4006C185.403 67.1329 183.333 67.499 180.472 67.499ZM194.57 67.5223C193.774 67.5223 193.114 67.319 192.591 66.9126C192.072 66.503 191.812 65.8903 191.812 65.0743C191.812 64.0752 192.488 63.2421 193.84 62.5751C194.43 62.2927 195.015 62.0678 195.596 61.9002C196.177 61.7327 196.76 61.5403 197.347 61.3231C197.505 61.2735 197.584 61.1494 197.584 60.9508V59.0753C197.584 58.5416 197.41 58.129 197.062 57.8373C196.717 57.5457 196.301 57.3998 195.814 57.3998C195.294 57.3998 194.862 57.5705 194.517 57.9118C194.172 58.2531 193.999 58.6983 193.999 59.2475C193.999 59.8308 193.643 60.1224 192.93 60.1224C192.43 60.1224 192.093 59.9642 191.919 59.6477C191.919 59.3002 192.07 58.9388 192.374 58.5633C192.677 58.1879 193.07 57.842 193.554 57.5255C194.041 57.209 194.575 56.95 195.156 56.7483C195.733 56.5497 196.309 56.4504 196.883 56.4504C197.834 56.4504 198.518 56.6707 198.934 57.1113C199.35 57.555 199.558 58.267 199.558 59.2475V65.0231C199.558 65.3737 199.654 65.6653 199.844 65.898C200.034 66.1307 200.294 66.2471 200.623 66.2471C200.849 66.2471 201.152 66.1307 201.532 65.898C201.603 65.898 201.639 65.9647 201.639 66.0981C201.639 66.3153 201.595 66.4906 201.508 66.624C200.799 67.2073 200.192 67.499 199.689 67.499C199.289 67.499 198.907 67.3408 198.542 67.0243C198.181 66.7078 197.931 66.3743 197.793 66.0237C197.705 66.0919 197.597 66.1788 197.468 66.2843C197.336 66.3929 197.226 66.4813 197.139 66.5496C196.778 66.8164 196.385 67.046 195.959 67.2384C195.533 67.4276 195.07 67.5223 194.57 67.5223ZM195.557 66.0981C196.041 66.0981 196.499 65.9647 196.931 65.6979C197.367 65.4311 197.584 65.1487 197.584 64.8509V62.2726C197.133 62.4401 196.704 62.5906 196.298 62.724C195.891 62.8574 195.565 62.966 195.32 63.0498C195.011 63.1646 194.712 63.3725 194.425 63.6734C194.141 63.9744 193.999 64.3157 193.999 64.6973C193.999 65.1999 194.159 65.5583 194.478 65.7724C194.798 65.9895 195.157 66.0981 195.557 66.0981ZM207.832 72.8743L205.002 73C204.931 72.9317 204.895 72.7983 204.895 72.5998C204.895 72.3826 204.931 72.274 205.002 72.274C205.14 72.274 205.331 72.2492 205.572 72.1995C205.814 72.1499 206.039 72.0832 206.245 71.9994C206.455 71.9156 206.567 71.8396 206.584 71.7713C206.655 71.5386 206.703 71.2734 206.729 70.9755C206.755 70.6746 206.767 70.3565 206.767 70.0215V59.6989C206.767 59.066 206.647 58.6161 206.405 58.3493C206.23 58.1507 206.026 58.0173 205.79 57.949C205.558 57.8839 205.351 57.8466 205.171 57.8373C204.987 57.828 204.895 57.8078 204.895 57.7768C204.895 57.3766 204.947 57.1671 205.05 57.1485C206.888 56.8817 208.067 56.6738 208.587 56.5249L208.766 56.4737C208.853 56.4737 208.888 56.5621 208.872 56.739C208.856 56.9127 208.838 57.0585 208.819 57.1764L208.795 57.3254C208.969 57.2075 209.211 57.0818 209.52 56.9484C209.833 56.815 210.167 56.6986 210.522 56.5994C210.877 56.5001 211.185 56.4504 211.446 56.4504C212.623 56.4504 213.606 56.7048 214.393 57.2137C215.183 57.7225 215.773 58.3632 216.163 59.1358C216.55 59.9114 216.744 60.6995 216.744 61.5C216.744 62.3005 216.589 63.0622 216.279 63.7851C215.967 64.5111 215.541 65.158 215.002 65.7258C214.467 66.2905 213.857 66.7357 213.173 67.0615C212.49 67.3873 211.783 67.5502 211.054 67.5502C210.519 67.5502 210.112 67.513 209.835 67.4385C209.558 67.3609 209.237 67.2399 208.872 67.0755C208.801 67.1406 208.766 67.2477 208.766 67.3966V69.5467C208.766 70.0308 208.783 70.4558 208.819 70.8219C208.854 71.188 208.906 71.5045 208.974 71.7713C209.009 71.8396 209.132 71.9156 209.341 71.9994C209.548 72.0832 209.772 72.1499 210.014 72.1995C210.256 72.2492 210.43 72.274 210.536 72.274C210.588 72.274 210.622 72.3779 210.638 72.5858C210.657 72.7937 210.649 72.9317 210.614 73L207.832 72.8743ZM211.161 66.4984C211.851 66.4984 212.443 66.2936 212.936 65.8841C213.433 65.4776 213.82 64.9455 214.097 64.2877C214.372 63.63 214.509 62.9334 214.509 62.1981C214.509 61.2642 214.331 60.4606 213.976 59.7873C213.622 59.111 213.151 58.5897 212.564 58.2236C211.973 57.8575 211.324 57.6744 210.614 57.6744C210.075 57.6744 209.633 57.8125 209.288 58.0886C208.94 58.3617 208.766 58.7573 208.766 59.2754V64.8974C208.766 65.3473 209.017 65.7274 209.52 66.0376C210.024 66.3448 210.57 66.4984 211.161 66.4984ZM224.161 67.2989L221.331 67.4245C221.26 67.3563 221.224 67.2151 221.224 67.001C221.224 66.7993 221.26 66.6985 221.331 66.6985C221.469 66.6985 221.66 66.6737 221.902 66.624C222.143 66.5744 222.369 66.5077 222.579 66.4239C222.785 66.3401 222.897 66.2657 222.913 66.2005C222.984 65.9647 223.032 65.6979 223.058 65.4C223.084 65.0991 223.097 64.7826 223.097 64.4506V59.7268C223.097 59.0908 222.976 58.6393 222.734 58.3725C222.56 58.1584 222.351 58.0219 222.11 57.963C221.868 57.904 221.66 57.8699 221.485 57.8606C221.311 57.8544 221.224 57.8342 221.224 57.8001C221.224 57.3998 221.277 57.192 221.384 57.1764C222.3 57.043 223.001 56.9298 223.488 56.8367C223.972 56.7467 224.404 56.6599 224.785 56.5761L225.1 56.5016C225.167 56.483 225.209 56.5497 225.225 56.7017C225.245 56.8507 225.245 56.9577 225.225 57.0229C225.193 57.358 225.164 57.676 225.138 57.9769C225.113 58.2748 225.1 58.5571 225.1 58.824V63.9759C225.1 64.4568 225.116 64.8819 225.148 65.2511C225.183 65.6172 225.237 65.9337 225.308 66.2005C225.34 66.2657 225.461 66.3401 225.671 66.4239C225.877 66.5077 226.101 66.5744 226.343 66.624C226.588 66.6737 226.762 66.6985 226.866 66.6985C226.917 66.6985 226.951 66.7993 226.967 67.001C226.987 67.1996 226.978 67.3408 226.943 67.4245L224.161 67.2989ZM223.905 53.7744C223.556 53.7744 223.253 53.6503 222.995 53.4021C222.734 53.1507 222.603 52.8591 222.603 52.5271C222.603 52.1765 222.734 51.8802 222.995 51.6382C223.253 51.3962 223.556 51.2752 223.905 51.2752C224.266 51.2752 224.572 51.3962 224.824 51.6382C225.075 51.8802 225.201 52.1765 225.201 52.5271C225.201 52.8591 225.075 53.1507 224.824 53.4021C224.572 53.6503 224.266 53.7744 223.905 53.7744ZM235.502 67.5223C234.637 67.5223 233.915 67.2477 233.334 66.6985C232.754 66.1493 232.463 65.3659 232.463 64.3482V58.0002H230.954C230.867 58.0002 230.823 57.8249 230.823 57.4743C230.823 57.375 230.833 57.3176 230.852 57.3021C231.372 57.0663 231.917 56.6242 232.488 55.9757C232.888 55.5258 233.186 55.1333 233.383 54.7983C233.583 54.4663 233.683 54.2677 233.683 54.2025C234.202 54.2025 234.462 54.2429 234.462 54.3236V56.7995L236.518 56.8227H237.969C238.108 56.8227 238.177 56.8988 238.177 57.0508C238.177 57.3673 238.092 57.6837 237.921 58.0002H234.462V64.1248C234.462 64.7919 234.639 65.3256 234.994 65.7258C235.352 66.123 235.816 66.3215 236.387 66.3215C236.923 66.3215 237.46 66.1633 237.998 65.8468C238.05 65.8158 238.127 65.8872 238.231 66.0609C238.334 66.2347 238.377 66.3308 238.361 66.3495C238.1 66.6163 237.702 66.8785 237.166 67.136C236.628 67.3935 236.073 67.5223 235.502 67.5223ZM244.97 67.5223C244.174 67.5223 243.516 67.319 242.996 66.9126C242.477 66.503 242.217 65.8903 242.217 65.0743C242.217 64.0752 242.893 63.2421 244.245 62.5751C244.835 62.2927 245.42 62.0678 246.001 61.9002C246.581 61.7327 247.165 61.5403 247.752 61.3231C247.907 61.2735 247.985 61.1494 247.985 60.9508V59.0753C247.985 58.5416 247.812 58.129 247.467 57.8373C247.122 57.5457 246.706 57.3998 246.219 57.3998C245.699 57.3998 245.267 57.5705 244.922 57.9118C244.574 58.2531 244.399 58.6983 244.399 59.2475C244.399 59.8308 244.045 60.1224 243.335 60.1224C242.832 60.1224 242.495 59.9642 242.324 59.6477C242.324 59.3002 242.475 58.9388 242.779 58.5633C243.082 58.1879 243.475 57.842 243.959 57.5255C244.443 57.209 244.975 56.95 245.556 56.7483C246.136 56.5497 246.712 56.4504 247.283 56.4504C248.238 56.4504 248.923 56.6707 249.339 57.1113C249.755 57.555 249.963 58.267 249.963 59.2475V65.0231C249.963 65.3737 250.059 65.6653 250.249 65.898C250.439 66.1307 250.699 66.2471 251.028 66.2471C251.254 66.2471 251.557 66.1307 251.937 65.898C252.005 65.898 252.039 65.9647 252.039 66.0981C252.039 66.3153 251.997 66.4906 251.913 66.624C251.2 67.2073 250.594 67.499 250.094 67.499C249.694 67.499 249.312 67.3408 248.947 67.0243C248.583 66.7078 248.331 66.3743 248.193 66.0237C248.109 66.0919 248.001 66.1788 247.868 66.2843C247.739 66.3929 247.631 66.4813 247.544 66.5496C247.18 66.8164 246.786 67.046 246.364 67.2384C245.938 67.4276 245.473 67.5223 244.97 67.5223ZM245.962 66.0981C246.446 66.0981 246.904 65.9647 247.336 65.6979C247.768 65.4311 247.985 65.1487 247.985 64.8509V62.2726C247.536 62.4401 247.109 62.5906 246.702 62.724C246.293 62.8574 245.967 62.966 245.725 63.0498C245.415 63.1646 245.117 63.3725 244.83 63.6734C244.543 63.9744 244.399 64.3157 244.399 64.6973C244.399 65.1999 244.561 65.5583 244.883 65.7724C245.203 65.9895 245.562 66.0981 245.962 66.0981ZM258.184 67.2989L255.353 67.4245C255.282 67.3563 255.247 67.2151 255.247 67.001C255.247 66.7993 255.282 66.6985 255.353 66.6985C255.492 66.6985 255.682 66.6737 255.924 66.624C256.166 66.5744 256.39 66.5077 256.597 66.4239C256.806 66.3401 256.919 66.2657 256.935 66.2005C257.006 65.9647 257.055 65.6979 257.08 65.4C257.106 65.0991 257.119 64.7826 257.119 64.4506V53.6255C257.119 53.0577 257.068 52.524 256.964 52.0245C256.893 51.7577 256.451 51.6242 255.639 51.6242H255.402C255.298 51.6242 255.247 51.5327 255.247 51.3497C255.247 51.0828 255.298 50.9494 255.402 50.9494C256.443 50.8346 257.214 50.7012 257.714 50.5492C258.217 50.4002 258.564 50.2668 258.754 50.1489L259.016 50H259.069C259.137 50 259.206 50.0465 259.277 50.1396C259.345 50.2296 259.388 50.3165 259.408 50.4002C259.214 50.9494 259.117 51.6739 259.117 52.5737V63.9759C259.117 64.4568 259.135 64.8819 259.171 65.2511C259.206 65.6172 259.258 65.9337 259.325 66.2005C259.361 66.2657 259.483 66.3401 259.693 66.4239C259.9 66.5077 260.124 66.5744 260.366 66.624C260.608 66.6737 260.782 66.6985 260.888 66.6985C260.94 66.6985 260.974 66.7993 260.99 67.001C261.009 67.1996 261.001 67.3408 260.966 67.4245L258.184 67.2989Z" fill="#168A53"/>
</g>
<defs>
<linearGradient id="paint0_linear_254_734" x1="77.1452" y1="90.9611" x2="155.848" y2="123.322" gradientUnits="userSpaceOnUse">
<stop offset="0.005" stop-color="#AB9262"/>
<stop offset="0.495" stop-color="#DABD86"/>
<stop offset="1" stop-color="#AB9262"/>
</linearGradient>
<linearGradient id="paint1_linear_254_734" x1="61.5" y1="7" x2="144" y2="35" gradientUnits="userSpaceOnUse">
<stop offset="0.005" stop-color="#AB9262"/>
<stop offset="0.495" stop-color="#DABD86"/>
<stop offset="1" stop-color="#AB9262"/>
</linearGradient>
<clipPath id="clip0_254_734">
<rect width="134" height="125" fill="white" transform="translate(51)"/>
</clipPath>
<clipPath id="clip1_254_734">
<rect width="135" height="6" fill="white" transform="translate(63 76)"/>
</clipPath>
<clipPath id="clip2_254_734">
<rect width="261" height="23" fill="white" transform="translate(0 50)"/>
</clipPath>
</defs>
</svg>
