<svg width="56" height="56" viewBox="0 0 56 56" fill="none" xmlns="http://www.w3.org/2000/svg">
<rect x="0.5" y="0.5" width="55" height="55" rx="27.5" fill="#1E4732"/>
<rect x="0.5" y="0.5" width="55" height="55" rx="27.5" stroke="#1E4732"/>
<path d="M35.0013 16.3333H21.0013C19.7126 16.3333 18.668 17.378 18.668 18.6667V37.3333C18.668 38.622 19.7126 39.6667 21.0013 39.6667H35.0013C36.29 39.6667 37.3346 38.622 37.3346 37.3333V18.6667C37.3346 17.378 36.29 16.3333 35.0013 16.3333Z" stroke="white" stroke-width="2" stroke-linecap="round" stroke-linejoin="round"/>
<path d="M23.332 21H32.6654" stroke="white" stroke-width="2" stroke-linecap="round" stroke-linejoin="round"/>
<path d="M32.668 30.3333V35" stroke="white" stroke-width="2" stroke-linecap="round" stroke-linejoin="round"/>
<path d="M32.668 25.6667H32.6796" stroke="white" stroke-width="2" stroke-linecap="round" stroke-linejoin="round"/>
<path d="M28 25.6667H28.0117" stroke="white" stroke-width="2" stroke-linecap="round" stroke-linejoin="round"/>
<path d="M23.332 25.6667H23.3437" stroke="white" stroke-width="2" stroke-linecap="round" stroke-linejoin="round"/>
<path d="M28 30.3333H28.0117" stroke="white" stroke-width="2" stroke-linecap="round" stroke-linejoin="round"/>
<path d="M23.332 30.3333H23.3437" stroke="white" stroke-width="2" stroke-linecap="round" stroke-linejoin="round"/>
<path d="M28 35H28.0117" stroke="white" stroke-width="2" stroke-linecap="round" stroke-linejoin="round"/>
<path d="M23.332 35H23.3437" stroke="white" stroke-width="2" stroke-linecap="round" stroke-linejoin="round"/>
</svg>
