<svg width="56" height="56" viewBox="0 0 56 56" fill="none" xmlns="http://www.w3.org/2000/svg">
<rect x="0.5" y="0.5" width="55" height="55" rx="27.5" fill="#1E4732"/>
<rect x="0.5" y="0.5" width="55" height="55" rx="27.5" stroke="#1E4732"/>
<path d="M26.834 33.8333H30.334V36.1667C30.334 36.4761 30.4569 36.7728 30.6757 36.9916C30.8945 37.2104 31.1912 37.3333 31.5007 37.3333H33.834C34.1434 37.3333 34.4402 37.2104 34.6589 36.9916C34.8777 36.7728 35.0007 36.4761 35.0007 36.1667V32.6667C35.5441 32.4857 36.0379 32.1807 36.443 31.7756C36.848 31.3706 37.1531 30.8768 37.334 30.3333H38.5007C38.8101 30.3333 39.1068 30.2104 39.3256 29.9916C39.5444 29.7728 39.6673 29.4761 39.6673 29.1667V26.8333C39.6673 26.5239 39.5444 26.2272 39.3256 26.0084C39.1068 25.7896 38.8101 25.6667 38.5007 25.6667H37.334C37.334 24.7611 37.1231 23.8679 36.7181 23.0579C36.3131 22.2479 35.7251 21.5434 35.0007 21V17.5C34.2762 17.5 33.5616 17.6687 32.9137 17.9927C32.2657 18.3167 31.702 18.7871 31.2673 19.3667L30.9173 19.8333H26.834C24.9775 19.8333 23.197 20.5708 21.8842 21.8836C20.5715 23.1963 19.834 24.9768 19.834 26.8333V28C19.834 28.9056 20.0448 29.7988 20.4498 30.6087C20.8548 31.4187 21.4428 32.1233 22.1673 32.6667V36.1667C22.1673 36.4761 22.2902 36.7728 22.509 36.9916C22.7278 37.2104 23.0246 37.3333 23.334 37.3333H25.6673C25.9767 37.3333 26.2735 37.2104 26.4923 36.9916C26.7111 36.7728 26.834 36.4761 26.834 36.1667V33.8333Z" stroke="white" stroke-width="2" stroke-linecap="round" stroke-linejoin="round"/>
<path d="M32.666 25.6666H32.6777" stroke="white" stroke-width="2" stroke-linecap="round" stroke-linejoin="round"/>
<path d="M16.334 23.3334V24.5C16.334 25.1189 16.5798 25.7124 17.0174 26.15C17.455 26.5875 18.0485 26.8334 18.6673 26.8334H19.834" stroke="white" stroke-width="2" stroke-linecap="round" stroke-linejoin="round"/>
</svg>
